<mxfile host="app.diagrams.net" modified="2024-06-15T12:30:00.000Z" agent="5.0 (Windows)" etag="jkl012" version="21.3.7">
  <diagram id="yourmedia-aws-architecture" name="YourMedia AWS Architecture">
    <mxGraphModel dx="1422" dy="798" grid="1" gridSize="10" guides="1" tooltips="1" connect="1" arrows="1" fold="1" page="1" pageScale="1" pageWidth="1169" pageHeight="827" math="0" shadow="0">
      <root>
        <mxCell id="0" />
        <mxCell id="1" parent="0" />
        <!-- AWS Cloud -->
        <mxCell id="aws-cloud" value="AWS Cloud (eu-west-3)" style="points=[[0,0],[0.25,0],[0.5,0],[0.75,0],[1,0],[1,0.25],[1,0.5],[1,0.75],[1,1],[0.75,1],[0.5,1],[0.25,1],[0,1],[0,0.75],[0,0.5],[0,0.25]];outlineConnect=0;gradientColor=none;html=1;whiteSpace=wrap;fontSize=12;fontStyle=0;container=1;pointerEvents=0;collapsible=0;recursiveResize=0;shape=mxgraph.aws4.group;grIcon=mxgraph.aws4.group_aws_cloud;strokeColor=#232F3E;fillColor=#F2F2F2;verticalAlign=top;align=left;spacingLeft=30;fontColor=#232F3E;dashed=0;" vertex="1" parent="1">
          <mxGeometry x="40" y="40" width="1080" height="720" as="geometry" />
        </mxCell>
        <!-- VPC -->
        <mxCell id="vpc" value="VPC (10.0.0.0/16)" style="points=[[0,0],[0.25,0],[0.5,0],[0.75,0],[1,0],[1,0.25],[1,0.5],[1,0.75],[1,1],[0.75,1],[0.5,1],[0.25,1],[0,1],[0,0.75],[0,0.5],[0,0.25]];outlineConnect=0;gradientColor=none;html=1;whiteSpace=wrap;fontSize=12;fontStyle=0;container=1;pointerEvents=0;collapsible=0;recursiveResize=0;shape=mxgraph.aws4.group;grIcon=mxgraph.aws4.group_vpc;strokeColor=#248814;fillColor=#E6F0FA;verticalAlign=top;align=left;spacingLeft=30;fontColor=#AAB7B8;dashed=0;" vertex="1" parent="aws-cloud">
          <mxGeometry x="80" y="80" width="800" height="520" as="geometry" />
        </mxCell>
        <!-- VPC Icon -->
        <mxCell id="vpc-icon" value="" style="sketch=0;points=[[0,0,0],[0.25,0,0],[0.5,0,0],[0.75,0,0],[1,0,0],[0,1,0],[0.25,1,0],[0.5,1,0],[0.75,1,0],[1,1,0],[0,0.25,0],[0,0.5,0],[0,0.75,0],[1,0.25,0],[1,0.5,0],[1,0.75,0]];outlineConnect=0;fontColor=#232F3E;gradientColor=#945DF2;gradientDirection=north;fillColor=#5A30B5;strokeColor=#ffffff;dashed=0;verticalLabelPosition=bottom;verticalAlign=top;align=center;html=1;fontSize=12;fontStyle=0;aspect=fixed;shape=mxgraph.aws4.resourceIcon;resIcon=mxgraph.aws4.vpc;" vertex="1" parent="vpc">
          <mxGeometry width="30" height="30" as="geometry" />
        </mxCell>
        
        <!-- Public Subnet 1 -->
        <mxCell id="public-subnet-1" value="Public Subnet 1&#xa;10.0.1.0/24&#xa;eu-west-3a" style="points=[[0,0],[0.25,0],[0.5,0],[0.75,0],[1,0],[1,0.25],[1,0.5],[1,0.75],[1,1],[0.75,1],[0.5,1],[0.25,1],[0,1],[0,0.75],[0,0.5],[0,0.25]];outlineConnect=0;gradientColor=none;html=1;whiteSpace=wrap;fontSize=12;fontStyle=0;container=1;pointerEvents=0;collapsible=0;recursiveResize=0;shape=mxgraph.aws4.group;grIcon=mxgraph.aws4.group_security_group;grStroke=0;strokeColor=#248814;fillColor=#E6FFCC;verticalAlign=top;align=left;spacingLeft=30;fontColor=#000000;dashed=0;" vertex="1" parent="vpc">
          <mxGeometry x="40" y="80" width="320" height="160" as="geometry" />
        </mxCell>
        <!-- Subnet Icon -->
        <mxCell id="public-subnet-1-icon" value="" style="sketch=0;outlineConnect=0;fontColor=#232F3E;gradientColor=none;fillColor=#4D27AA;strokeColor=none;dashed=0;verticalLabelPosition=bottom;verticalAlign=top;align=center;html=1;fontSize=12;fontStyle=0;aspect=fixed;pointerEvents=1;shape=mxgraph.aws4.subnet;" vertex="1" parent="public-subnet-1">
          <mxGeometry width="30" height="30" as="geometry" />
        </mxCell>
        
        <!-- EC2 Java/Tomcat -->
        <mxCell id="ec2-java" value="" style="sketch=0;points=[[0,0,0],[0.25,0,0],[0.5,0,0],[0.75,0,0],[1,0,0],[0,1,0],[0.25,1,0],[0.5,1,0],[0.75,1,0],[1,1,0],[0,0.25,0],[0,0.5,0],[0,0.75,0],[1,0.25,0],[1,0.5,0],[1,0.75,0]];outlineConnect=0;fontColor=#232F3E;gradientColor=#F78E04;gradientDirection=north;fillColor=#D05C17;strokeColor=#ffffff;dashed=0;verticalLabelPosition=bottom;verticalAlign=top;align=center;html=1;fontSize=12;fontStyle=0;aspect=fixed;shape=mxgraph.aws4.resourceIcon;resIcon=mxgraph.aws4.ec2;" vertex="1" parent="public-subnet-1">
          <mxGeometry x="120" y="60" width="60" height="60" as="geometry" />
        </mxCell>
        
        <!-- EC2 Java/Tomcat Label -->
        <mxCell id="ec2-java-label" value="EC2 Java/Tomcat&#xa;t2.micro&#xa;Amazon Linux 2" style="text;html=1;strokeColor=none;fillColor=none;align=center;verticalAlign=middle;whiteSpace=wrap;rounded=0;" vertex="1" parent="public-subnet-1">
          <mxGeometry x="100" y="120" width="100" height="30" as="geometry" />
        </mxCell>
        
        <!-- Public Subnet 2 -->
        <mxCell id="public-subnet-2" value="Public Subnet 2&#xa;10.0.2.0/24&#xa;eu-west-3a" style="points=[[0,0],[0.25,0],[0.5,0],[0.75,0],[1,0],[1,0.25],[1,0.5],[1,0.75],[1,1],[0.75,1],[0.5,1],[0.25,1],[0,1],[0,0.75],[0,0.5],[0,0.25]];outlineConnect=0;gradientColor=none;html=1;whiteSpace=wrap;fontSize=12;fontStyle=0;container=1;pointerEvents=0;collapsible=0;recursiveResize=0;shape=mxgraph.aws4.group;grIcon=mxgraph.aws4.group_security_group;grStroke=0;strokeColor=#248814;fillColor=#E6FFCC;verticalAlign=top;align=left;spacingLeft=30;fontColor=#000000;dashed=0;" vertex="1" parent="vpc">
          <mxGeometry x="440" y="80" width="320" height="160" as="geometry" />
        </mxCell>
        <!-- Subnet Icon -->
        <mxCell id="public-subnet-2-icon" value="" style="sketch=0;outlineConnect=0;fontColor=#232F3E;gradientColor=none;fillColor=#4D27AA;strokeColor=none;dashed=0;verticalLabelPosition=bottom;verticalAlign=top;align=center;html=1;fontSize=12;fontStyle=0;aspect=fixed;pointerEvents=1;shape=mxgraph.aws4.subnet;" vertex="1" parent="public-subnet-2">
          <mxGeometry width="30" height="30" as="geometry" />
        </mxCell>
        
        <!-- EC2 Monitoring -->
        <mxCell id="ec2-monitoring" value="" style="sketch=0;points=[[0,0,0],[0.25,0,0],[0.5,0,0],[0.75,0,0],[1,0,0],[0,1,0],[0.25,1,0],[0.5,1,0],[0.75,1,0],[1,1,0],[0,0.25,0],[0,0.5,0],[0,0.75,0],[1,0.25,0],[1,0.5,0],[1,0.75,0]];outlineConnect=0;fontColor=#232F3E;gradientColor=#F78E04;gradientDirection=north;fillColor=#D05C17;strokeColor=#ffffff;dashed=0;verticalLabelPosition=bottom;verticalAlign=top;align=center;html=1;fontSize=12;fontStyle=0;aspect=fixed;shape=mxgraph.aws4.resourceIcon;resIcon=mxgraph.aws4.ec2;" vertex="1" parent="public-subnet-2">
          <mxGeometry x="120" y="60" width="60" height="60" as="geometry" />
        </mxCell>
        
        <!-- EC2 Monitoring Label -->
        <mxCell id="ec2-monitoring-label" value="EC2 Monitoring&#xa;t2.micro&#xa;Prometheus + Grafana" style="text;html=1;strokeColor=none;fillColor=none;align=center;verticalAlign=middle;whiteSpace=wrap;rounded=0;" vertex="1" parent="public-subnet-2">
          <mxGeometry x="100" y="120" width="100" height="30" as="geometry" />
        </mxCell>
        
        <!-- Private Subnet 1 -->
        <mxCell id="private-subnet-1" value="Private Subnet 1&#xa;10.0.3.0/24&#xa;eu-west-3b" style="points=[[0,0],[0.25,0],[0.5,0],[0.75,0],[1,0],[1,0.25],[1,0.5],[1,0.75],[1,1],[0.75,1],[0.5,1],[0.25,1],[0,1],[0,0.75],[0,0.5],[0,0.25]];outlineConnect=0;gradientColor=none;html=1;whiteSpace=wrap;fontSize=12;fontStyle=0;container=1;pointerEvents=0;collapsible=0;recursiveResize=0;shape=mxgraph.aws4.group;grIcon=mxgraph.aws4.group_security_group;grStroke=0;strokeColor=#147EBA;fillColor=#FFF9CC;verticalAlign=top;align=left;spacingLeft=30;fontColor=#000000;dashed=0;" vertex="1" parent="vpc">
          <mxGeometry x="40" y="320" width="320" height="160" as="geometry" />
        </mxCell>
        <!-- Subnet Icon -->
        <mxCell id="private-subnet-1-icon" value="" style="sketch=0;outlineConnect=0;fontColor=#232F3E;gradientColor=none;fillColor=#4D27AA;strokeColor=none;dashed=0;verticalLabelPosition=bottom;verticalAlign=top;align=center;html=1;fontSize=12;fontStyle=0;aspect=fixed;pointerEvents=1;shape=mxgraph.aws4.subnet;" vertex="1" parent="private-subnet-1">
          <mxGeometry width="30" height="30" as="geometry" />
        </mxCell>
        
        <!-- RDS MySQL -->
        <mxCell id="rds-mysql" value="" style="sketch=0;points=[[0,0,0],[0.25,0,0],[0.5,0,0],[0.75,0,0],[1,0,0],[0,1,0],[0.25,1,0],[0.5,1,0],[0.75,1,0],[1,1,0],[0,0.25,0],[0,0.5,0],[0,0.75,0],[1,0.25,0],[1,0.5,0],[1,0.75,0]];outlineConnect=0;fontColor=#232F3E;gradientColor=#4D72F3;gradientDirection=north;fillColor=#3334B9;strokeColor=#ffffff;dashed=0;verticalLabelPosition=bottom;verticalAlign=top;align=center;html=1;fontSize=12;fontStyle=0;aspect=fixed;shape=mxgraph.aws4.resourceIcon;resIcon=mxgraph.aws4.rds;" vertex="1" parent="private-subnet-1">
          <mxGeometry x="120" y="60" width="60" height="60" as="geometry" />
        </mxCell>
        
        <!-- RDS MySQL Label -->
        <mxCell id="rds-mysql-label" value="RDS MySQL&#xa;db.t3.micro&#xa;MySQL 8.0.28" style="text;html=1;strokeColor=none;fillColor=none;align=center;verticalAlign=middle;whiteSpace=wrap;rounded=0;" vertex="1" parent="private-subnet-1">
          <mxGeometry x="100" y="120" width="100" height="30" as="geometry" />
        </mxCell>
        
        <!-- Private Subnet 2 -->
        <mxCell id="private-subnet-2" value="Private Subnet 2&#xa;10.0.4.0/24&#xa;eu-west-3b" style="points=[[0,0],[0.25,0],[0.5,0],[0.75,0],[1,0],[1,0.25],[1,0.5],[1,0.75],[1,1],[0.75,1],[0.5,1],[0.25,1],[0,1],[0,0.75],[0,0.5],[0,0.25]];outlineConnect=0;gradientColor=none;html=1;whiteSpace=wrap;fontSize=12;fontStyle=0;container=1;pointerEvents=0;collapsible=0;recursiveResize=0;shape=mxgraph.aws4.group;grIcon=mxgraph.aws4.group_security_group;grStroke=0;strokeColor=#147EBA;fillColor=#FFF9CC;verticalAlign=top;align=left;spacingLeft=30;fontColor=#000000;dashed=0;" vertex="1" parent="vpc">
          <mxGeometry x="440" y="320" width="320" height="160" as="geometry" />
        </mxCell>
        <!-- Subnet Icon -->
        <mxCell id="private-subnet-2-icon" value="" style="sketch=0;outlineConnect=0;fontColor=#232F3E;gradientColor=none;fillColor=#4D27AA;strokeColor=none;dashed=0;verticalLabelPosition=bottom;verticalAlign=top;align=center;html=1;fontSize=12;fontStyle=0;aspect=fixed;pointerEvents=1;shape=mxgraph.aws4.subnet;" vertex="1" parent="private-subnet-2">
          <mxGeometry width="30" height="30" as="geometry" />
        </mxCell>
        
        <!-- S3 Bucket -->
        <mxCell id="s3-bucket" value="" style="sketch=0;points=[[0,0,0],[0.25,0,0],[0.5,0,0],[0.75,0,0],[1,0,0],[0,1,0],[0.25,1,0],[0.5,1,0],[0.75,1,0],[1,1,0],[0,0.25,0],[0,0.5,0],[0,0.75,0],[1,0.25,0],[1,0.5,0],[1,0.75,0]];outlineConnect=0;fontColor=#232F3E;gradientColor=#60A337;gradientDirection=north;fillColor=#277116;strokeColor=#ffffff;dashed=0;verticalLabelPosition=bottom;verticalAlign=top;align=center;html=1;fontSize=12;fontStyle=0;aspect=fixed;shape=mxgraph.aws4.resourceIcon;resIcon=mxgraph.aws4.s3;" vertex="1" parent="aws-cloud">
          <mxGeometry x="200" y="640" width="60" height="60" as="geometry" />
        </mxCell>
        
        <!-- S3 Bucket Label -->
        <mxCell id="s3-bucket-label" value="S3 Bucket&#xa;yourmedia-storage" style="text;html=1;strokeColor=none;fillColor=none;align=center;verticalAlign=middle;whiteSpace=wrap;rounded=0;" vertex="1" parent="aws-cloud">
          <mxGeometry x="180" y="700" width="100" height="20" as="geometry" />
        </mxCell>
        
        <!-- AWS Amplify -->
        <mxCell id="amplify" value="" style="sketch=0;points=[[0,0,0],[0.25,0,0],[0.5,0,0],[0.75,0,0],[1,0,0],[0,1,0],[0.25,1,0],[0.5,1,0],[0.75,1,0],[1,1,0],[0,0.25,0],[0,0.5,0],[0,0.75,0],[1,0.25,0],[1,0.5,0],[1,0.75,0]];outlineConnect=0;fontColor=#232F3E;gradientColor=#F54749;gradientDirection=north;fillColor=#C7131F;strokeColor=#ffffff;dashed=0;verticalLabelPosition=bottom;verticalAlign=top;align=center;html=1;fontSize=12;fontStyle=0;aspect=fixed;shape=mxgraph.aws4.resourceIcon;resIcon=mxgraph.aws4.amplify;" vertex="1" parent="aws-cloud">
          <mxGeometry x="700" y="640" width="60" height="60" as="geometry" />
        </mxCell>
        
        <!-- AWS Amplify Label -->
        <mxCell id="amplify-label" value="AWS Amplify&#xa;React Native Web" style="text;html=1;strokeColor=none;fillColor=none;align=center;verticalAlign=middle;whiteSpace=wrap;rounded=0;" vertex="1" parent="aws-cloud">
          <mxGeometry x="680" y="700" width="100" height="20" as="geometry" />
        </mxCell>
      </root>
    </mxGraphModel>
  </diagram>
</mxfile>
